<?xml version="1.0" encoding="UTF-8" standalone="no"?>
<svg id="svg2" xmlns:rdf="http://www.w3.org/1999/02/22-rdf-syntax-ns#" xmlns="http://www.w3.org/2000/svg" version="1.1" xmlns:cc="http://creativecommons.org/ns#" xmlns:dc="http://purl.org/dc/elements/1.1/" viewBox="0 0 35.61 28.93">
 <metadata id="metadata14">
  <rdf:RDF>
   <cc:Work rdf:about="">
    <dc:format>image/svg+xml</dc:format>
    <dc:type rdf:resource="http://purl.org/dc/dcmitype/StillImage"/>
    <dc:title>Asset 14</dc:title>
   </cc:Work>
  </rdf:RDF>
 </metadata>
 <title id="title4">Asset 14</title>
 <g id="Layer_2" fill="#fff" data-name="Layer 2">
  <g id="Layer_1-2" fill="#fff" data-name="Layer 1">
   <path id="path8" fill="#fff" d="m11.2 28.93c13.44 0 20.8-11.13 20.8-20.78v-0.94a14.86 14.86 0 0 0 3.64 -3.78 14.58 14.58 0 0 1 -4.2 1.15 7.33 7.33 0 0 0 3.21 -4 14.64 14.64 0 0 1 -4.65 1.72 7.31 7.31 0 0 0 -12.47 6.7 20.74 20.74 0 0 1 -15.05 -7.67 7.31 7.31 0 0 0 2.26 9.75 7.25 7.25 0 0 1 -3.32 -0.91v0.09a7.31 7.31 0 0 0 5.86 7.16 7.29 7.29 0 0 1 -3.3 0.13 7.31 7.31 0 0 0 6.83 5.07 14.66 14.66 0 0 1 -9.07 3.13 14.87 14.87 0 0 1 -1.74 -0.1 20.68 20.68 0 0 0 11.2 3.28"/>
  </g>
 </g>
</svg>
